<?xml version="1.0" standalone="no"?>
<!DOCTYPE svg PUBLIC "-//W3C//DTD SVG 20010904//EN"
 "http://www.w3.org/TR/2001/REC-SVG-20010904/DTD/svg10.dtd">
<svg version="1.0" xmlns="http://www.w3.org/2000/svg"
 width="412.000000pt" height="251.000000pt" viewBox="0 0 412.000000 251.000000"
 preserveAspectRatio="xMidYMid meet">

<g transform="translate(0.000000,251.000000) scale(0.100000,-0.100000)"
fill="#000000" stroke="none">
<path d="M1775 2331 l-90 -16 -3 -569 c-2 -622 0 -650 54 -721 37 -49 120 -86
208 -92 l72 -6 13 87 c7 48 12 88 10 90 -2 1 -23 8 -46 15 -51 14 -78 41 -87
83 -3 17 -6 282 -6 589 0 526 -1 559 -17 558 -10 -1 -58 -9 -108 -18z"/>
<path d="M120 2251 c0 -100 12 -117 95 -132 33 -7 66 -13 73 -15 9 -3 12 -137
12 -628 l0 -624 -71 -12 c-100 -17 -109 -29 -109 -136 l0 -86 483 5 c439 4
489 7 560 25 226 57 366 198 397 398 13 83 1 182 -31 248 -37 80 -140 158
-253 191 -22 7 -41 16 -43 21 -1 5 24 21 56 36 171 80 257 248 221 430 -32
167 -144 277 -325 322 -117 30 -235 36 -647 36 l-418 0 0 -79z m957 -190 c91
-40 123 -97 126 -220 1 -61 -3 -84 -20 -117 -29 -54 -57 -76 -186 -149 -59
-33 -107 -64 -107 -68 0 -4 55 -43 123 -87 189 -122 195 -126 219 -172 35 -66
32 -175 -6 -245 -16 -29 -46 -64 -66 -78 -69 -48 -115 -55 -342 -55 l-208 0 0
603 c0 332 3 607 8 611 4 4 97 6 207 4 182 -4 205 -6 252 -27z"/>
<path d="M2487 1900 c-104 -27 -222 -120 -270 -217 -45 -89 -60 -165 -54 -293
5 -132 23 -192 88 -289 51 -77 120 -127 215 -157 217 -69 433 13 536 203 57
104 79 288 49 413 -34 139 -126 255 -248 312 -60 28 -78 32 -172 34 -58 2
-123 -1 -144 -6z m253 -218 c19 -15 48 -54 64 -85 55 -109 46 -299 -18 -393
-76 -113 -236 -126 -328 -28 -89 96 -103 327 -27 451 62 101 216 128 309 55z"/>
<path d="M3479 1892 c-84 -28 -155 -71 -200 -120 -152 -164 -157 -494 -9 -655
107 -117 287 -155 457 -96 l53 18 0 -37 c0 -102 -50 -173 -138 -198 -73 -22
-230 -14 -322 15 -35 11 -66 19 -68 16 -5 -4 -43 -178 -39 -180 16 -11 145
-36 227 -45 147 -14 272 2 362 46 66 33 110 74 140 131 51 95 53 123 53 618
l0 459 -85 19 c-49 10 -146 20 -230 23 -123 4 -153 2 -201 -14z m255 -168 l46
-7 0 -247 0 -248 -36 -17 c-46 -22 -135 -34 -184 -25 -81 15 -138 70 -161 154
-18 65 -7 213 19 263 58 111 152 149 316 127z"/>
<path d="M1461 343 c28 -133 28 -133 44 -133 14 0 24 26 47 129 l12 55 22 -88
c12 -48 25 -90 28 -93 17 -17 33 15 50 98 10 52 21 100 23 107 3 6 -2 12 -10
12 -11 0 -20 -25 -33 -97 -16 -90 -18 -95 -26 -63 -28 118 -42 160 -52 160 -7
0 -22 -41 -36 -97 l-24 -98 -8 45 c-19 113 -30 150 -43 150 -10 0 -9 -17 6
-87z"/>
<path d="M1730 320 l0 -110 65 0 c78 0 88 18 13 22 l-53 3 0 40 c0 40 0 40 43
43 56 4 54 22 -4 22 -45 0 -45 0 -42 33 3 31 5 32 51 35 68 4 58 22 -13 22
l-60 0 0 -110z"/>
<path d="M1900 319 l0 -111 61 4 c49 4 66 9 80 27 24 30 24 46 -2 72 -15 15
-18 24 -10 32 18 18 13 65 -8 77 -11 5 -42 10 -70 10 l-51 0 0 -111z m106 77
c28 -22 7 -50 -40 -54 -35 -3 -36 -2 -36 32 0 33 3 36 28 36 16 0 37 -6 48
-14z m-2 -86 c18 -7 26 -17 26 -34 0 -29 -25 -46 -69 -46 -29 0 -31 2 -31 38
0 21 3 42 7 45 9 10 38 9 67 -3z"/>
<path d="M2104 405 c-24 -37 -6 -69 50 -94 37 -16 46 -25 46 -45 0 -31 -38
-45 -77 -27 -32 15 -45 4 -19 -15 26 -19 76 -18 104 2 17 12 22 24 20 47 -3
27 -11 36 -55 60 -36 19 -53 35 -53 47 0 24 45 38 70 22 22 -13 34 -4 19 15
-6 7 -29 13 -50 13 -30 0 -42 -5 -55 -25z"/>
<path d="M2280 320 c0 -67 4 -110 10 -110 6 0 10 43 10 110 0 67 -4 110 -10
110 -6 0 -10 -43 -10 -110z"/>
<path d="M2340 420 c0 -5 16 -10 35 -10 l35 0 0 -100 c0 -82 3 -100 15 -100
12 0 15 18 15 100 l0 100 30 0 c17 0 30 5 30 10 0 6 -33 10 -80 10 -47 0 -80
-4 -80 -10z"/>
<path d="M2540 320 l0 -110 65 0 c75 0 89 17 18 22 l-48 3 0 40 c0 39 1 40 38
43 50 4 48 22 -3 22 -39 0 -40 1 -40 35 l0 35 50 0 c28 0 50 5 50 10 0 6 -28
10 -65 10 l-65 0 0 -110z"/>
<path d="M260 320 c0 -7 190 -10 550 -10 360 0 550 3 550 10 0 7 -190 10 -550
10 -360 0 -550 -3 -550 -10z"/>
<path d="M2760 320 c0 -7 190 -10 550 -10 360 0 550 3 550 10 0 7 -190 10
-550 10 -360 0 -550 -3 -550 -10z"/>
</g>
</svg>
